# xmcd CD database file
#
# Track frame offsets:
#	150
#	24440
#	49534
#	71257
#	102753
#	134803
#	162356
#	183911
#	206975
#	227921
#	250131
#	272773
#	294064
#	312586
#
# Disc length: 4518 seconds
#
# Revision: 0
# Processed by: cddbd v1.5.2PL0 Copyright (c) Steve Scherf et al.
# Submitted via: CDex 1.70beta2
#
DISCID=c811a40e
DTITLE=Santo Rico Compilation - Mambo Rico #10
DYEAR=1900
DGENRE=Salsa
TTITLE0=Estoy Enamorado
TTITLE1=La Cura
TTITLE2=Vaselina Pa Mi Pelo
TTITLE3=Quien Dijo Miedo
TTITLE4=Vamonos Pal Monte
TTITLE5=Simon
TTITLE6=Amigo
TTITLE7=Tiempo Pa Mata
TTITLE8=25 Rosas
TTITLE9=No Me Tienes
TTITLE10=Devorame Otra Vez
TTITLE11=Payaso
TTITLE12=Señora Ley
TTITLE13=Por Moron
EXTD=
EXTT0=
EXTT1=
EXTT2=
EXTT3=
EXTT4=
EXTT5=
EXTT6=
EXTT7=
EXTT8=
EXTT9=
EXTT10=
EXTT11=
EXTT12=
EXTT13=
PLAYORDER=
